<?xml version="1.0" standalone="no"?>
<!DOCTYPE svg PUBLIC "-//W3C//DTD SVG 20010904//EN"
 "http://www.w3.org/TR/2001/REC-SVG-20010904/DTD/svg10.dtd">
<svg version="1.0" xmlns="http://www.w3.org/2000/svg"
 width="300.000000pt" height="46.000000pt" viewBox="0 0 300.000000 46.000000"
 preserveAspectRatio="xMidYMid meet">
<metadata>
Created by potrace 1.10, written by Peter Selinger 2001-2011
</metadata>
<g transform="translate(0.000000,46.000000) scale(0.100000,-0.100000)"
fill="#000000" stroke="none">
<path d="M1179 408 c0 -1 -2 -51 -4 -110 -3 -101 -2 -108 16 -108 17 0 19 6
17 58 l-3 57 30 0 c30 0 30 -1 33 -57 3 -51 6 -58 24 -58 14 0 18 5 14 16 -3
9 -6 35 -6 59 0 55 -21 79 -64 72 -30 -5 -31 -4 -31 31 0 19 -6 37 -12 39 -7
3 -13 3 -14 1z"/>
<path d="M937 394 c-16 -16 -6 -35 16 -32 12 2 22 10 22 18 0 16 -26 25 -38
14z"/>
<path d="M1643 370 c-90 -54 -83 -189 12 -220 56 -19 165 24 165 66 0 19 -14
18 -31 -2 -39 -48 -117 -57 -154 -19 -51 50 -23 141 49 165 35 11 83 0 98 -23
15 -23 8 -64 -13 -83 l-22 -19 7 46 c6 44 5 47 -18 53 -32 8 -72 -8 -86 -34
-26 -49 9 -108 49 -83 12 7 22 8 28 2 16 -16 61 7 78 40 22 44 19 69 -14 102
-36 36 -98 40 -148 9z m87 -69 c0 -28 -21 -61 -40 -61 -23 0 -28 38 -8 58 14
14 48 16 48 3z"/>
<path d="M1354 366 c-3 -8 -3 -20 1 -26 3 -5 -1 -10 -9 -10 -9 0 -16 -7 -16
-15 0 -8 4 -15 9 -15 6 0 11 -24 13 -52 3 -49 5 -53 31 -56 19 -2 27 1 27 12
0 9 -7 16 -15 16 -11 0 -15 12 -15 46 0 41 2 45 20 39 14 -5 20 -2 20 9 0 9
-8 16 -18 16 -13 0 -18 7 -18 21 1 26 -21 37 -30 15z"/>
<path d="M1931 334 c-22 -29 -27 -59 -11 -69 17 -11 32 5 20 20 -15 17 4 55
26 55 18 0 16 -32 -7 -113 -12 -42 -11 -49 3 -63 21 -22 52 -11 78 29 20 29
21 30 16 7 -3 -14 -6 -30 -6 -36 0 -6 -16 -18 -35 -27 -22 -10 -35 -24 -35
-36 0 -43 57 -30 88 21 26 41 67 65 76 42 7 -19 35 -18 58 3 17 15 18 15 18 0
0 -29 33 -19 76 24 41 41 42 41 54 19 9 -16 9 -25 -1 -37 -12 -13 -14 -13 -25
1 -10 14 -13 15 -24 1 -10 -12 -9 -16 3 -21 26 -9 49 -1 68 26 16 22 17 30 6
60 -16 45 -34 41 -70 -16 -31 -47 -64 -61 -53 -21 4 12 9 36 13 52 6 27 5 29
-10 16 -14 -11 -20 -11 -32 -1 -13 11 -21 10 -43 -7 -15 -11 -33 -32 -40 -46
-12 -24 -52 -56 -52 -42 0 3 10 44 21 91 12 46 19 87 16 91 -15 14 -35 -10
-55 -64 -25 -68 -57 -123 -72 -123 -14 0 -12 31 5 80 19 54 19 75 -1 94 -23
23 -50 19 -73 -10z m291 -104 c-3 -28 -20 -50 -38 -50 -19 0 -18 30 2 58 19
28 40 23 36 -8z m-192 -119 c-12 -24 -30 -28 -30 -6 0 13 31 38 38 30 2 -2 -1
-13 -8 -24z"/>
<path d="M2478 333 c-85 -91 -74 -211 17 -177 43 17 85 167 55 198 -15 15 -32
-32 -20 -54 22 -42 -33 -151 -62 -122 -15 15 6 112 33 145 35 45 17 52 -23 10z"/>
<path d="M2622 344 c-12 -8 -22 -24 -22 -35 0 -27 24 -19 28 9 4 23 35 31 47
11 12 -18 -4 -59 -24 -59 -28 0 -33 -12 -8 -25 39 -20 20 -90 -23 -82 -9 2
-14 12 -13 25 3 25 -24 31 -33 7 -18 -45 75 -63 114 -22 26 28 28 44 5 69 -16
18 -15 19 5 34 26 18 28 46 6 68 -20 20 -53 20 -82 0z"/>
<path d="M2772 337 c-26 -28 -29 -50 -5 -45 10 2 18 12 18 23 0 15 7 20 25 20
38 0 35 -45 -5 -64 -28 -14 -29 -14 -7 -22 26 -10 31 -59 7 -79 -21 -18 -48
-4 -42 21 4 15 1 19 -11 17 -21 -4 -28 -38 -10 -49 21 -14 71 -10 95 6 31 22
35 53 10 78 -14 14 -17 22 -9 25 17 5 42 31 42 43 0 18 -40 49 -63 49 -13 0
-33 -10 -45 -23z"/>
<path d="M1127 344 c-4 -4 -26 -7 -49 -8 -35 -1 -45 -6 -57 -28 -14 -24 -14
-28 1 -45 16 -17 16 -21 -5 -62 l-22 -43 24 -19 c47 -38 125 -12 119 39 -2 21
-10 28 -40 35 -42 10 -51 27 -15 27 31 0 47 18 47 51 0 15 6 29 13 32 8 3 9 8
1 16 -6 6 -13 8 -17 5z m-43 -30 c18 -7 22 -39 6 -49 -15 -9 -50 4 -50 19 0 6
5 17 12 24 14 14 12 14 32 6z m26 -150 c0 -9 -12 -14 -34 -14 -39 0 -53 14
-36 35 14 17 70 1 70 -21z"/>
<path d="M102 324 c-52 -36 -51 -107 3 -130 37 -15 75 -8 75 13 0 11 -7 13
-25 9 -31 -8 -68 25 -58 51 11 33 26 44 52 41 18 -2 26 2 26 12 0 21 -45 24
-73 4z"/>
<path d="M222 317 c-29 -31 -29 -87 -2 -112 32 -29 88 -25 116 9 31 35 30 70
-1 101 -32 33 -83 34 -113 2z m102 -40 c8 -23 6 -31 -12 -49 -30 -30 -75 -16
-80 25 -5 38 15 59 52 55 23 -2 33 -10 40 -31z"/>
<path d="M394 233 c1 -89 4 -108 16 -108 11 0 14 9 12 35 l-3 36 39 -4 c33 -3
42 0 61 23 28 36 27 70 -4 100 -26 27 -46 31 -75 15 -13 -7 -21 -7 -25 0 -16
26 -21 2 -21 -97z m106 58 c5 -11 10 -27 10 -35 0 -22 -41 -46 -68 -39 -18 4
-22 12 -22 43 0 21 6 41 13 43 27 12 57 6 67 -12z"/>
<path d="M561 326 c-9 -10 -9 -16 -1 -21 6 -4 22 -32 36 -62 22 -50 23 -58 9
-73 -19 -21 -19 -40 -1 -40 17 0 109 187 100 202 -11 18 -28 1 -43 -45 -9 -26
-20 -47 -25 -48 -5 0 -18 22 -28 50 -20 54 -28 60 -47 37z"/>
<path d="M820 265 c0 -69 2 -75 21 -75 19 0 20 4 14 39 -8 50 8 85 36 76 13
-4 19 -2 19 9 0 21 -17 29 -39 16 -13 -7 -22 -7 -26 0 -16 26 -25 3 -25 -65z"/>
<path d="M939 336 c-2 -2 -3 -36 -1 -75 3 -64 6 -71 24 -71 14 0 18 5 14 16
-3 9 -6 42 -6 75 0 42 -4 59 -13 59 -8 0 -16 -2 -18 -4z"/>
<path d="M1466 325 c-22 -22 -20 -48 4 -70 27 -24 26 -47 -2 -43 -25 4 -37
-19 -14 -28 22 -8 66 22 66 45 0 10 -9 26 -20 36 -26 24 -25 43 3 47 12 2 22
8 22 13 0 17 -42 17 -59 0z"/>
</g>
</svg>
